<svg fill="none" focusable="false" width="18" height="13" class="icon icon--youtube" viewBox="0 0 18 13">
      <path fill-rule="evenodd" clip-rule="evenodd" d="M16.0325 0.369454C16.807 0.572743 17.4168 1.17173 17.6238 1.9324C18 3.31101 18 6.1875 18 6.1875C18 6.1875 18 9.06389 17.6238 10.4427C17.4168 11.2033 16.807 11.8023 16.0325 12.0056C14.6288 12.375 9 12.375 9 12.375C9 12.375 3.37122 12.375 1.96752 12.0056C1.19311 11.8023 0.583159 11.2033 0.376159 10.4427C0 9.06389 0 6.1875 0 6.1875C0 6.1875 0 3.31101 0.376159 1.9324C0.583159 1.17173 1.19311 0.572743 1.96752 0.369454C3.37122 0 9 0 9 0C9 0 14.6288 0 16.0325 0.369454ZM11.8636 6.1876L7.1591 8.79913V3.57588L11.8636 6.1876Z" fill="currentColor"></path>
    </svg>