<svg xmlns="http://www.w3.org/2000/svg" width="12" height="12" viewBox="0 0 22 22">
            <g id="Group_334346" data-name="Group 334346" transform="translate(17150 -5434)">
              <rect id="Rectangle_114376" data-name="Rectangle 114376" width="22" height="22" transform="translate(-17150 5434)" fill="transparent"></rect>
              <g id="Group_334341" data-name="Group 334341" transform="translate(-17149 5435)">
                <path id="Path_332351" data-name="Path 332351" d="M1153.144,361.362a1.527,1.527,0,0,1,2.738,0l2.313,4.692,5.154.768a1.527,1.527,0,0,1,.848,2.6l-3.729,3.683.868,5.179a1.526,1.526,0,0,1-2.216,1.6l-4.606-2.424-4.607,2.424a1.526,1.526,0,0,1-2.216-1.6l.868-5.179-3.729-3.683a1.526,1.526,0,0,1,.848-2.6l5.154-.768Z" transform="translate(-1144.374 -360.511)" fill="#f4c730" fill-rule="evenodd"></path>
              </g>
            </g>
            </svg>