<svg fill="none" focusable="false" width="13" height="13" class="icon icon--linkedin" viewBox="0 0 13 13">
      <path fill-rule="evenodd" clip-rule="evenodd" d="M3.12412 1.56485C3.12412 0.70105 2.42432 0 1.56256 0C0.697275 0 0 0.70105 0 1.56485C0 2.42916 0.697275 3.13021 1.56256 3.13021C2.42432 3.13021 3.12412 2.42916 3.12412 1.56485ZM2.91019 13H0.213925V4.31649H2.91019V13ZM7.18264 4.31648H4.6004V13H7.29112V8.70525C7.29112 7.57205 7.50505 6.47473 8.90666 6.47473C10.2891 6.47473 10.3068 7.77018 10.3068 8.77702V13H13V8.23771C13 5.89903 12.496 4.10117 9.76892 4.10117C8.45812 4.10117 7.57871 4.82092 7.21948 5.50377H7.18264V4.31648Z" fill="currentColor"></path>
    </svg>