<svg focusable="false" width="20" height="16" class="icon icon--twitter" viewBox="0 0 20 16">
      <path fill-rule="evenodd" clip-rule="evenodd" d="M12.845 2.13398C14.0997 2.11363 14.7676 2.53229 15.4054 3.06445C15.9468 3.02216 16.6505 2.74528 17.065 2.55232C17.1993 2.48493 17.3337 2.41786 17.468 2.35046C17.2312 2.93602 16.9103 3.39474 16.417 3.74251C16.3074 3.81976 16.1987 3.92434 16.0613 3.97362C16.0613 3.97584 16.0613 3.97838 16.0613 3.98061C16.7643 3.97394 17.3441 3.6837 17.8947 3.52603C17.8947 3.52856 17.8947 3.5311 17.8947 3.53365C17.6055 3.95454 17.214 4.38147 16.7963 4.6876C16.6277 4.8103 16.4591 4.93301 16.2905 5.05571C16.2997 5.73696 16.2795 6.38704 16.1404 6.95989C15.3314 10.2888 13.1878 12.5491 9.7945 13.517C8.5761 13.8648 6.60702 14.0075 5.21102 13.6903C4.51872 13.5329 3.89334 13.3552 3.30644 13.1203C2.98052 12.9896 2.67854 12.8485 2.38972 12.6876C2.29496 12.6346 2.2001 12.5818 2.10522 12.5287C2.42018 12.5376 2.78846 12.6168 3.14052 12.5649C3.45896 12.5179 3.77128 12.53 4.06514 12.4712C4.79794 12.324 5.4486 12.1294 6.00916 11.829C6.2809 11.6834 6.69324 11.5124 6.88634 11.3026C6.52248 11.3083 6.19256 11.2311 5.9223 11.144C4.87436 10.8051 4.26436 10.1824 3.86752 9.2468C4.1851 9.27827 5.09982 9.35394 5.31368 9.18894C4.91398 9.16891 4.52956 8.95688 4.25478 8.7992C3.41184 8.31634 2.72438 7.50634 2.72954 6.26021C2.84022 6.30821 2.9509 6.35653 3.06148 6.40453C3.27324 6.48622 3.48848 6.52978 3.74112 6.57778C3.8478 6.59781 4.06114 6.65534 4.18362 6.6137C4.17836 6.6137 4.17308 6.6137 4.16782 6.6137C4.00476 6.43982 3.73902 6.32411 3.57512 6.1375C3.03438 5.52206 2.52758 4.57507 2.84812 3.44686C2.9294 3.16077 3.05842 2.90805 3.19586 2.67502C3.20114 2.67757 3.2064 2.67979 3.21168 2.68234C3.2746 2.80282 3.415 2.89152 3.50408 2.99229C3.78024 3.30573 4.1209 3.5877 4.46812 3.83629C5.65108 4.68347 6.71642 5.20386 8.42738 5.58946C8.86134 5.68706 9.36308 5.76176 9.88146 5.76238C9.73578 5.37424 9.78258 4.7461 9.89726 4.37035C10.1856 3.42557 10.8119 2.74402 11.7307 2.37907C11.9504 2.29197 12.1941 2.22838 12.4498 2.17722C12.5815 2.16291 12.7133 2.14861 12.845 2.13398Z" fill="currentColor"></path>
    </svg>