<svg xmlns="http://www.w3.org/2000/svg" width="58" height="57" viewBox="0 0 58 57">
      <g id="quote" transform="translate(0.352 -0.468)">
        <rect id="Frame" width="58" height="57" transform="translate(-0.352 0.468)" fill="#1a2024" opacity="0"></rect>
        <path id="Path_17515" data-name="Path 17515" d="M375.616,596.744l-6.091,12.178a2.37,2.37,0,0,1-2.122,1.313h-6.108a1.187,1.187,0,0,1-1.061-1.719l6.262-12.525h-5.935A3.562,3.562,0,0,1,357,592.43v-11.87A3.562,3.562,0,0,1,360.561,577H372.43a3.562,3.562,0,0,1,3.561,3.561v14.59A3.571,3.571,0,0,1,375.616,596.744Z" transform="translate(-325.823 -564.814)" fill="#1a2024" opacity="0.4"></path>
        <path id="Path_17516" data-name="Path 17516" d="M365.616,596.744l-6.091,12.178a2.37,2.37,0,0,1-2.122,1.313h-6.108a1.187,1.187,0,0,1-1.061-1.719l6.262-12.525h-5.935A3.562,3.562,0,0,1,347,592.43v-11.87A3.562,3.562,0,0,1,350.561,577h11.87a3.562,3.562,0,0,1,3.561,3.561v14.59A3.571,3.571,0,0,1,365.616,596.744Z" transform="translate(-339.562 -564.814)" fill="#1a2024"></path>
      </g>
    </svg>